HIERARCHY
ROOT Hips
{
  OFFSET 0.000000 0.000000 0.000000
  CHANNELS 6 Xposition Yposition Zposition Xrotation Yrotation Zrotation
  JOINT Spine
  {
    OFFSET -16.358602 1.828309 -11.432522
    CHANNELS 3 Xrotation Yrotation Zrotation
    JOINT Chest
    {
      OFFSET -16.358602 1.828309 -11.432522
      CHANNELS 3 Xrotation Yrotation Zrotation
      JOINT Neck
      {
        OFFSET -8.880462 -1.937083 -7.694816
        CHANNELS 3 Xrotation Yrotation Zrotation
        JOINT Head
        {
          OFFSET 4.128385 -9.240175 -3.022280
          CHANNELS 3 Xrotation Yrotation Zrotation
          End Site
          {
            OFFSET 0.0 0.0 5.0
          }
        }
      }
      JOINT LeftShoulder
      {
        OFFSET -2.009933 -5.930026 7.868551
        CHANNELS 3 Xrotation Yrotation Zrotation
        JOINT LeftArm
        {
          OFFSET 14.430994 -5.998932 -6.594132
          CHANNELS 3 Xrotation Yrotation Zrotation
          JOINT LeftForeArm
          {
            OFFSET 2.539480 -7.791439 -14.465773
            CHANNELS 3 Xrotation Yrotation Zrotation
            JOINT LeftHand
            {
              OFFSET -5.000000 0.000000 0.000000
              CHANNELS 3 Xrotation Yrotation Zrotation
              End Site
              {
                OFFSET 0.0 0.0 5.0
              }
            }
          }
        }
      }
      JOINT RightShoulder
      {
        OFFSET 2.009933 5.930026 -7.868551
        CHANNELS 3 Xrotation Yrotation Zrotation
        JOINT RightArm
        {
          OFFSET 10.134590 -11.861017 -7.784295
          CHANNELS 3 Xrotation Yrotation Zrotation
          JOINT RightForeArm
          {
            OFFSET -1.465267 -13.677672 -8.802342
            CHANNELS 3 Xrotation Yrotation Zrotation
            JOINT RightHand
            {
              OFFSET 5.000000 0.000000 0.000000
              CHANNELS 3 Xrotation Yrotation Zrotation
              End Site
              {
                OFFSET 0.0 0.0 5.0
              }
            }
          }
        }
      }
    }
  }
  JOINT LeftUpLeg
  {
    OFFSET -0.146412 -4.472220 6.852908
    CHANNELS 3 Xrotation Yrotation Zrotation
    JOINT LeftLeg
    {
      OFFSET 30.240823 -19.119577 7.723191
      CHANNELS 3 Xrotation Yrotation Zrotation
      JOINT LeftFoot
      {
        OFFSET 21.780694 -13.368560 9.803674
        CHANNELS 3 Xrotation Yrotation Zrotation
        JOINT LeftToeBase
        {
          OFFSET 5.471778 -8.016554 -5.193800
          CHANNELS 3 Xrotation Yrotation Zrotation
          End Site
          {
            OFFSET 0.0 0.0 5.0
          }
        }
      }
    }
  }
  JOINT RightUpLeg
  {
    OFFSET 0.146412 4.472220 -6.852908
    CHANNELS 3 Xrotation Yrotation Zrotation
    JOINT RightLeg
    {
      OFFSET -26.761007 -20.673704 -16.152711
      CHANNELS 3 Xrotation Yrotation Zrotation
      JOINT RightFoot
      {
        OFFSET -42.121264 -18.926984 -7.076482
        CHANNELS 3 Xrotation Yrotation Zrotation
        JOINT RightToeBase
        {
          OFFSET -18.315911 -4.085934 -10.104081
          CHANNELS 3 Xrotation Yrotation Zrotation
          End Site
          {
            OFFSET 0.0 0.0 5.0
          }
        }
      }
    }
  }
}
MOTION
Frames: 18
Frame Time: 0.033333
0.000000 0.000000 0.000000 112.323288 -18.577550 -171.722366 107.507666 -21.352441 -129.683810 103.390786 -20.873389 177.261307 -4.417051 17.247186 -51.226856 0.000000 0.000000 0.000000 -17.058907 29.083268 -45.699701 -30.236728 -27.453766 20.960544 -53.302466 -27.137542 128.635362 0.000000 0.000000 0.000000 -30.720010 -1.994290 -60.570116 12.001836 -17.081829 19.113983 -6.166084 24.141460 -28.273850 0.000000 0.000000 0.000000 35.342407 43.574924 11.017466 34.393790 44.502214 1.061368 35.608627 -6.698319 31.901416 0.000000 0.000000 0.000000 -31.385483 21.506587 54.848015 -14.516010 -4.247391 88.808577 -99.531849 -51.830121 128.574657 0.000000 0.000000 0.000000
0.000000 0.000000 0.000000 147.807112 -8.335758 20.293173 91.301676 8.751438 -124.212123 138.562921 -19.432604 -10.323040 -43.178183 -23.172572 -37.736898 0.000000 0.000000 0.000000 -23.110502 -21.239839 -61.160000 -110.649767 -22.714261 75.738873 34.549971 12.247617 141.931411 0.000000 0.000000 0.000000 -29.575766 -1.417981 -57.872173 0.940826 5.694325 -8.907380 3.706614 -1.734274 -129.863493 0.000000 0.000000 0.000000 4.943230 3.784784 -12.818215 8.034569 7.895733 -8.693133 -0.186128 -24.820966 47.675603 0.000000 0.000000 0.000000 -34.738774 30.171532 60.297179 -2.366132 43.309215 67.466027 -77.184704 -6.268778 125.647779 0.000000 0.000000 0.000000
0.000000 0.000000 0.000000 134.289961 -10.475408 44.768063 89.419470 9.348891 -122.554805 131.998344 -22.148503 2.066418 -34.034856 -15.632136 -38.974422 0.000000 0.000000 0.000000 -20.345491 -15.552222 -48.791218 -111.248377 -20.716674 62.241749 102.583839 20.750025 163.306234 0.000000 0.000000 0.000000 -33.288983 -17.592755 -34.703854 -22.269049 -13.602238 37.381358 0.441067 -9.901098 -5.088705 0.000000 0.000000 0.000000 4.306915 0.561756 -17.283481 10.228235 8.356406 -14.757340 -7.718031 -24.614207 45.659538 0.000000 0.000000 0.000000 -35.405844 35.292185 34.731165 -10.362984 25.707118 17.269081 -37.542547 2.760357 72.292466 0.000000 0.000000 0.000000
0.000000 0.000000 0.000000 123.620589 -7.923562 63.109123 81.341777 20.392974 -119.900539 127.815598 -24.808939 17.818485 -30.871932 -12.894562 -37.081894 0.000000 0.000000 0.000000 -21.194852 -11.096957 -52.281764 -113.433165 -18.963667 54.256476 92.159094 20.214518 160.518640 0.000000 0.000000 0.000000 -30.476300 -11.672283 -41.472816 -14.688325 -8.779019 21.005016 -0.776772 -4.285658 20.537490 0.000000 0.000000 0.000000 4.561936 -2.392343 -23.945463 11.133859 9.008707 -16.677699 -7.252860 -22.806992 40.922809 0.000000 0.000000 0.000000 -34.192011 35.156666 9.326310 -10.354198 22.782699 4.625097 -30.724297 0.248659 58.592597 0.000000 0.000000 0.000000
0.000000 0.000000 0.000000 123.755805 -8.149105 64.259160 81.400533 20.719807 -120.169323 130.955111 -25.161862 15.656401 -28.292442 -10.707833 -37.211045 0.000000 0.000000 0.000000 -22.135543 -8.717781 -55.375421 -110.132841 -20.461721 55.738230 54.035381 11.540622 157.581181 0.000000 0.000000 0.000000 -27.916341 -6.423615 -44.475632 -5.926835 -12.088700 21.582921 1.105164 7.594852 16.535148 0.000000 0.000000 0.000000 4.399226 -3.142309 -24.452067 10.773754 8.450955 -16.378340 -5.675646 -22.577975 40.877763 0.000000 0.000000 0.000000 -32.623705 33.545368 9.863189 -10.162376 22.068883 2.772901 -32.812132 -3.579693 61.297283 0.000000 0.000000 0.000000
0.000000 0.000000 0.000000 106.469924 2.678970 61.213955 71.086203 32.865194 -117.512182 95.577128 -13.872459 43.999295 -65.516263 -29.683592 -8.757085 0.000000 0.000000 0.000000 -23.538582 -14.856432 -61.141011 -134.919302 -7.285890 74.588636 0.813090 3.350194 27.276729 0.000000 0.000000 0.000000 -32.100388 -10.507660 -50.408050 -8.320748 -0.446050 2.380285 14.816581 -16.639045 -83.284701 0.000000 0.000000 0.000000 5.036981 -5.402521 -30.280730 12.598174 6.253807 -25.494449 -13.019771 -23.540975 40.871048 0.000000 0.000000 0.000000 -34.239617 36.323702 -19.312391 -14.939337 27.395691 -13.741669 -16.756024 17.655480 30.767186 0.000000 0.000000 0.000000
0.000000 0.000000 0.000000 93.331694 10.163347 58.839269 66.316709 38.387822 -117.254777 81.294715 -5.343282 45.802357 -77.725318 -32.406446 -1.345701 0.000000 0.000000 0.000000 -25.831092 -13.535053 -69.184950 -124.687238 -18.012513 -87.036380 0.021283 -3.323284 -0.733640 0.000000 0.000000 0.000000 -31.721979 17.259397 -80.231730 -2.159688 5.600870 -8.767733 -1.359310 1.465449 -85.695875 0.000000 0.000000 0.000000 6.480927 -5.315322 -36.079250 12.159423 7.128624 -22.894431 -16.641430 -23.296068 38.446282 0.000000 0.000000 0.000000 -28.689940 33.297583 -22.667828 -5.662014 13.145373 -12.253637 -3.743018 20.700148 -3.597063 0.000000 0.000000 0.000000
0.000000 0.000000 0.000000 78.266321 15.872539 50.336928 60.444790 43.426243 -115.856950 68.561121 2.432538 45.183823 -100.488637 -29.772894 19.049307 0.000000 0.000000 0.000000 -24.905321 -23.213966 -71.366395 -113.815123 15.219046 -140.345081 -0.417998 16.899469 -2.813224 0.000000 0.000000 0.000000 -43.847098 16.436721 -108.755750 -33.320682 8.489404 -19.056299 32.499732 -39.603882 -77.980719 0.000000 0.000000 0.000000 8.088241 -4.227522 -41.862140 14.505404 15.151058 -18.075999 -18.356794 -18.445402 20.849958 0.000000 0.000000 0.000000 -25.628108 32.657845 -32.322701 -3.382441 9.363873 -12.038943 -0.872252 19.816460 -9.774361 0.000000 0.000000 0.000000
0.000000 0.000000 0.000000 76.027995 15.667305 46.950920 63.990512 39.315585 -115.264688 68.071277 2.824250 45.348567 -103.298920 -28.643748 21.955990 0.000000 0.000000 0.000000 -24.135563 -28.882915 -72.856022 -115.743930 2.129365 -130.961908 -10.939119 22.100857 -52.237561 0.000000 0.000000 0.000000 -41.815403 2.372393 -100.701279 -45.462067 5.126817 -6.228446 26.909046 -41.922632 -63.969556 0.000000 0.000000 0.000000 8.484673 -3.299781 -42.775037 15.216906 16.999343 -17.095097 -18.592233 -19.005215 22.448913 0.000000 0.000000 0.000000 -27.122473 33.176586 -30.276097 -2.923788 9.056205 -15.324882 -0.900942 20.865477 -10.624529 0.000000 0.000000 0.000000
0.000000 0.000000 0.000000 65.099098 16.793255 38.383111 59.503890 43.137796 -114.059350 63.813460 6.941669 47.876264 -113.410858 -19.163524 37.174268 0.000000 0.000000 0.000000 -37.538091 -8.821540 -102.229008 -152.294865 49.865860 137.666289 -3.031516 7.201390 -45.614135 0.000000 0.000000 0.000000 -46.499122 14.089406 -115.393352 -39.183966 4.183732 -2.731021 21.548816 -23.726344 -84.347556 0.000000 0.000000 0.000000 10.482773 0.573808 -49.383277 18.252015 13.672299 -37.394673 -8.390625 -5.135264 -0.651637 0.000000 0.000000 0.000000 -17.081410 30.415675 -42.765083 4.394213 1.037169 -27.045926 -2.189728 30.184359 -17.961686 0.000000 0.000000 0.000000
0.000000 0.000000 0.000000 52.096493 19.612703 33.752500 49.247422 52.428967 -115.395760 55.100859 10.579417 43.468102 -118.384440 -11.565550 46.015707 0.000000 0.000000 0.000000 -70.516375 25.272104 -132.135286 151.678166 56.198998 76.044726 -2.640601 5.897289 -48.212166 0.000000 0.000000 0.000000 -44.333906 14.088620 -109.841488 -45.841264 4.022401 0.330546 22.206639 -21.664989 -91.449854 0.000000 0.000000 0.000000 12.142103 2.460888 -57.900137 19.649406 16.830432 -39.765690 -15.832075 -4.677168 -11.962024 0.000000 0.000000 0.000000 -13.793414 30.512565 -49.588171 3.460500 2.440717 -27.805421 4.405459 27.488943 -31.102385 0.000000 0.000000 0.000000
0.000000 0.000000 0.000000 33.597437 20.510365 25.035970 48.877487 50.681532 -110.403910 40.113488 16.632229 37.237708 -126.852197 -19.951463 37.970495 0.000000 0.000000 0.000000 96.625506 -67.427820 152.746622 -177.400958 -7.078086 24.685735 -39.215198 50.562484 -74.051337 0.000000 0.000000 0.000000 -45.310176 -38.772073 -112.043116 -114.649332 12.829325 7.181113 -34.357754 -88.343084 35.304190 0.000000 0.000000 0.000000 12.711259 4.592906 -60.739152 21.161688 20.929148 -42.023100 -18.534464 4.384592 -33.490592 0.000000 0.000000 0.000000 -17.427698 33.474084 -60.169391 4.325314 1.291930 -27.658544 12.960684 25.867641 -46.833295 0.000000 0.000000 0.000000
0.000000 0.000000 0.000000 32.134921 19.587075 23.344661 49.775367 48.710636 -107.811438 38.046332 19.145476 38.473393 -128.747165 -24.439240 34.013561 0.000000 0.000000 0.000000 108.823289 -66.999117 146.518496 -165.088228 -30.449601 -31.251921 -37.224031 54.066241 -66.850115 0.000000 0.000000 0.000000 -47.628803 -51.657169 -102.415012 -112.945482 14.026310 10.507681 0.872264 -74.215882 -1.152990 0.000000 0.000000 0.000000 12.630498 2.090880 -61.074418 22.566612 27.424604 -36.818961 -22.304066 -0.398305 -32.487547 0.000000 0.000000 0.000000 -19.961658 34.122958 -60.485489 5.104655 0.473226 -28.321599 11.285881 25.519495 -43.057010 0.000000 0.000000 0.000000
0.000000 0.000000 0.000000 16.180482 11.671974 10.588107 36.395731 59.091634 -109.627446 8.833443 22.880239 21.416612 -45.110742 -62.566283 -109.026670 0.000000 0.000000 0.000000 54.504989 -70.635287 -173.334005 -121.848209 10.431753 -169.766691 -20.177872 43.246213 -48.347345 0.000000 0.000000 0.000000 -45.263918 -36.622433 -112.759647 -108.527240 7.764489 -3.090667 81.053772 -74.469775 -96.725660 0.000000 0.000000 0.000000 15.179432 1.457521 -76.445575 25.643130 36.926221 -52.386745 -14.828236 36.151575 -61.745298 0.000000 0.000000 0.000000 -23.417267 36.539245 -76.326933 12.619529 -4.387421 -40.354576 18.341056 17.320190 -45.340509 0.000000 0.000000 0.000000
0.000000 0.000000 0.000000 12.698023 6.724780 5.826242 34.888242 59.889259 -109.178186 3.193857 22.911624 18.242791 -34.890937 -56.797932 -126.705887 0.000000 0.000000 0.000000 98.654990 -68.624027 153.212711 -152.433988 35.359770 124.944030 -19.224816 38.663270 -51.538959 0.000000 0.000000 0.000000 -46.300949 -23.686286 -125.795534 -123.507271 0.944443 -16.922254 -119.013528 -81.910574 125.856439 0.000000 0.000000 0.000000 15.512855 5.278336 -81.138531 26.629125 44.107932 -57.624708 -14.402000 34.860943 -60.124828 0.000000 0.000000 0.000000 -26.579246 37.027889 -78.311453 16.712862 -5.295162 -48.842806 18.448975 22.925964 -52.394495 0.000000 0.000000 0.000000
0.000000 0.000000 0.000000 9.345144 3.253539 2.733588 28.994528 63.442235 -112.628209 -2.513141 21.485657 14.260172 -31.077685 -32.693671 -134.532542 0.000000 0.000000 0.000000 42.433589 -64.706940 -176.778948 156.824238 24.421738 52.190675 -17.870631 27.445209 -65.552421 0.000000 0.000000 0.000000 -53.173275 12.083176 -133.138735 -127.292023 -9.911647 -33.851072 -105.983784 -73.838893 120.949807 0.000000 0.000000 0.000000 14.988820 9.336693 -80.881689 25.114628 40.328333 -72.495994 -23.457870 30.964338 -71.847783 0.000000 0.000000 0.000000 -24.799105 36.948612 -79.297492 17.101575 -2.798977 -56.601219 17.973521 30.125344 -62.986383 0.000000 0.000000 0.000000
0.000000 0.000000 0.000000 9.126894 2.977827 2.505658 45.501179 51.653115 -106.112078 -1.697820 19.472328 13.298228 -41.944657 -56.571594 -111.332653 0.000000 0.000000 0.000000 2.916094 -57.921886 -141.945325 165.929632 38.244514 73.418474 -12.143995 21.937246 -57.520882 0.000000 0.000000 0.000000 -54.922034 20.843827 -133.922165 -126.038220 -14.853358 -42.301755 -97.532045 -69.646798 117.258528 0.000000 0.000000 0.000000 15.241956 8.141805 -81.849230 25.323245 32.359556 -75.952404 -31.214087 22.288254 -80.165049 0.000000 0.000000 0.000000 -26.620495 37.218565 -80.835910 14.711100 -0.695962 -57.183350 18.683420 30.698461 -65.227349 0.000000 0.000000 0.000000
0.000000 0.000000 0.000000 4.782277 -4.899028 -3.396214 45.929928 50.790528 -104.934101 -6.665330 12.244926 6.381266 -31.726066 1.236460 -142.025708 0.000000 0.000000 0.000000 -36.393544 -26.068208 -131.628376 126.404986 30.115765 38.365074 10.595673 -16.136244 -66.382019 0.000000 0.000000 0.000000 -28.705092 75.112454 -93.121958 94.501119 72.277586 -23.175153 -62.856009 -31.940341 129.810119 0.000000 0.000000 0.000000 15.881558 10.846459 -92.949278 25.730016 29.949373 -81.717539 -33.326057 46.406914 -96.319788 0.000000 0.000000 0.000000 -33.071371 38.406764 -106.300968 13.617158 4.275246 -72.606919 28.081562 25.311706 -70.219047 0.000000 0.000000 0.000000
